<mxfile host="app.diagrams.net" modified="2024-02-08T02:19:34.309Z" agent="Mozilla/5.0 (Windows NT 10.0; Win64; x64) AppleWebKit/537.36 (KHTML, like Gecko) Chrome/121.0.0.0 Safari/537.36 Edg/121.0.0.0" etag="Q_yNlgSnnkRoToHqVeDz" version="23.1.1" type="github">
  <diagram id="C5RBs43oDa-KdzZeNtuy" name="Page-1">
    <mxGraphModel dx="996" dy="573" grid="1" gridSize="10" guides="1" tooltips="1" connect="1" arrows="1" fold="1" page="1" pageScale="1" pageWidth="827" pageHeight="1169" math="0" shadow="0">
      <root>
        <mxCell id="WIyWlLk6GJQsqaUBKTNV-0" />
        <mxCell id="WIyWlLk6GJQsqaUBKTNV-1" parent="WIyWlLk6GJQsqaUBKTNV-0" />
        <mxCell id="deIehZgMaA9XYwQfUWdO-2" style="edgeStyle=orthogonalEdgeStyle;rounded=0;orthogonalLoop=1;jettySize=auto;html=1;entryX=0.5;entryY=0;entryDx=0;entryDy=0;" edge="1" parent="WIyWlLk6GJQsqaUBKTNV-1" source="deIehZgMaA9XYwQfUWdO-0" target="deIehZgMaA9XYwQfUWdO-1">
          <mxGeometry relative="1" as="geometry" />
        </mxCell>
        <mxCell id="deIehZgMaA9XYwQfUWdO-0" value="El interruptor del CanSat es activado" style="ellipse;whiteSpace=wrap;html=1;" vertex="1" parent="WIyWlLk6GJQsqaUBKTNV-1">
          <mxGeometry x="354" y="40" width="120" height="70" as="geometry" />
        </mxCell>
        <mxCell id="deIehZgMaA9XYwQfUWdO-4" style="edgeStyle=orthogonalEdgeStyle;rounded=0;orthogonalLoop=1;jettySize=auto;html=1;entryX=0.5;entryY=0;entryDx=0;entryDy=0;" edge="1" parent="WIyWlLk6GJQsqaUBKTNV-1" source="deIehZgMaA9XYwQfUWdO-1" target="deIehZgMaA9XYwQfUWdO-3">
          <mxGeometry relative="1" as="geometry" />
        </mxCell>
        <mxCell id="deIehZgMaA9XYwQfUWdO-1" value="Envía un mensaje para conocer el estado de todos los sensores" style="rounded=0;whiteSpace=wrap;html=1;" vertex="1" parent="WIyWlLk6GJQsqaUBKTNV-1">
          <mxGeometry x="354" y="140" width="120" height="60" as="geometry" />
        </mxCell>
        <mxCell id="deIehZgMaA9XYwQfUWdO-6" value="&lt;font style=&quot;font-size: 14px;&quot;&gt;Sí&lt;/font&gt;" style="edgeStyle=orthogonalEdgeStyle;rounded=0;orthogonalLoop=1;jettySize=auto;html=1;entryX=0;entryY=0.5;entryDx=0;entryDy=0;" edge="1" parent="WIyWlLk6GJQsqaUBKTNV-1" source="deIehZgMaA9XYwQfUWdO-3">
          <mxGeometry relative="1" as="geometry">
            <mxPoint x="520" y="305" as="targetPoint" />
          </mxGeometry>
        </mxCell>
        <mxCell id="deIehZgMaA9XYwQfUWdO-13" value="&lt;font style=&quot;font-size: 14px;&quot;&gt;No&lt;/font&gt;" style="edgeStyle=orthogonalEdgeStyle;rounded=0;orthogonalLoop=1;jettySize=auto;html=1;exitX=0.5;exitY=1;exitDx=0;exitDy=0;entryX=0.5;entryY=0;entryDx=0;entryDy=0;" edge="1" parent="WIyWlLk6GJQsqaUBKTNV-1" source="deIehZgMaA9XYwQfUWdO-3" target="deIehZgMaA9XYwQfUWdO-12">
          <mxGeometry relative="1" as="geometry" />
        </mxCell>
        <mxCell id="deIehZgMaA9XYwQfUWdO-3" value="¿Falló la inicialización de algún sensor?" style="rhombus;whiteSpace=wrap;html=1;" vertex="1" parent="WIyWlLk6GJQsqaUBKTNV-1">
          <mxGeometry x="351" y="240" width="126" height="130" as="geometry" />
        </mxCell>
        <mxCell id="deIehZgMaA9XYwQfUWdO-15" style="edgeStyle=orthogonalEdgeStyle;rounded=0;orthogonalLoop=1;jettySize=auto;html=1;exitX=0.5;exitY=1;exitDx=0;exitDy=0;" edge="1" parent="WIyWlLk6GJQsqaUBKTNV-1" source="deIehZgMaA9XYwQfUWdO-12" target="deIehZgMaA9XYwQfUWdO-14">
          <mxGeometry relative="1" as="geometry" />
        </mxCell>
        <mxCell id="deIehZgMaA9XYwQfUWdO-12" value="Inicializar el NRF24" style="rounded=0;whiteSpace=wrap;html=1;" vertex="1" parent="WIyWlLk6GJQsqaUBKTNV-1">
          <mxGeometry x="354" y="410" width="120" height="60" as="geometry" />
        </mxCell>
        <mxCell id="deIehZgMaA9XYwQfUWdO-17" value="&lt;font style=&quot;font-size: 14px;&quot;&gt;Sí&lt;/font&gt;" style="edgeStyle=orthogonalEdgeStyle;rounded=0;orthogonalLoop=1;jettySize=auto;html=1;exitX=0;exitY=0.5;exitDx=0;exitDy=0;entryX=1;entryY=0.5;entryDx=0;entryDy=0;" edge="1" parent="WIyWlLk6GJQsqaUBKTNV-1" source="deIehZgMaA9XYwQfUWdO-14" target="deIehZgMaA9XYwQfUWdO-16">
          <mxGeometry relative="1" as="geometry" />
        </mxCell>
        <mxCell id="deIehZgMaA9XYwQfUWdO-23" value="No" style="edgeStyle=orthogonalEdgeStyle;rounded=0;orthogonalLoop=1;jettySize=auto;html=1;exitX=0.5;exitY=1;exitDx=0;exitDy=0;" edge="1" parent="WIyWlLk6GJQsqaUBKTNV-1" source="deIehZgMaA9XYwQfUWdO-14" target="deIehZgMaA9XYwQfUWdO-22">
          <mxGeometry relative="1" as="geometry" />
        </mxCell>
        <mxCell id="deIehZgMaA9XYwQfUWdO-14" value="¿Falló la inicialización de el transceptor?" style="rhombus;whiteSpace=wrap;html=1;" vertex="1" parent="WIyWlLk6GJQsqaUBKTNV-1">
          <mxGeometry x="351" y="510" width="126" height="130" as="geometry" />
        </mxCell>
        <mxCell id="deIehZgMaA9XYwQfUWdO-20" style="edgeStyle=orthogonalEdgeStyle;rounded=0;orthogonalLoop=1;jettySize=auto;html=1;entryX=0.5;entryY=1;entryDx=0;entryDy=0;" edge="1" parent="WIyWlLk6GJQsqaUBKTNV-1" source="deIehZgMaA9XYwQfUWdO-16" target="deIehZgMaA9XYwQfUWdO-19">
          <mxGeometry relative="1" as="geometry" />
        </mxCell>
        <mxCell id="deIehZgMaA9XYwQfUWdO-16" value="Hacer sonar el buzzer durante 3 segundos" style="rounded=1;whiteSpace=wrap;html=1;" vertex="1" parent="WIyWlLk6GJQsqaUBKTNV-1">
          <mxGeometry x="190" y="545" width="120" height="60" as="geometry" />
        </mxCell>
        <mxCell id="deIehZgMaA9XYwQfUWdO-21" style="edgeStyle=orthogonalEdgeStyle;rounded=0;orthogonalLoop=1;jettySize=auto;html=1;entryX=0;entryY=0.5;entryDx=0;entryDy=0;" edge="1" parent="WIyWlLk6GJQsqaUBKTNV-1" source="deIehZgMaA9XYwQfUWdO-19" target="deIehZgMaA9XYwQfUWdO-12">
          <mxGeometry relative="1" as="geometry" />
        </mxCell>
        <mxCell id="deIehZgMaA9XYwQfUWdO-19" value="Esperar 3 segundos" style="rounded=0;whiteSpace=wrap;html=1;" vertex="1" parent="WIyWlLk6GJQsqaUBKTNV-1">
          <mxGeometry x="190" y="410" width="120" height="60" as="geometry" />
        </mxCell>
        <mxCell id="deIehZgMaA9XYwQfUWdO-26" style="edgeStyle=orthogonalEdgeStyle;rounded=0;orthogonalLoop=1;jettySize=auto;html=1;" edge="1" parent="WIyWlLk6GJQsqaUBKTNV-1" source="deIehZgMaA9XYwQfUWdO-22" target="deIehZgMaA9XYwQfUWdO-24">
          <mxGeometry relative="1" as="geometry" />
        </mxCell>
        <mxCell id="deIehZgMaA9XYwQfUWdO-22" value="Configurar el NRF24 como transmisor" style="rounded=0;whiteSpace=wrap;html=1;" vertex="1" parent="WIyWlLk6GJQsqaUBKTNV-1">
          <mxGeometry x="354" y="670" width="120" height="60" as="geometry" />
        </mxCell>
        <mxCell id="deIehZgMaA9XYwQfUWdO-51" style="edgeStyle=orthogonalEdgeStyle;rounded=0;orthogonalLoop=1;jettySize=auto;html=1;exitX=0.5;exitY=1;exitDx=0;exitDy=0;" edge="1" parent="WIyWlLk6GJQsqaUBKTNV-1" source="deIehZgMaA9XYwQfUWdO-24">
          <mxGeometry relative="1" as="geometry">
            <mxPoint x="414" y="850" as="targetPoint" />
          </mxGeometry>
        </mxCell>
        <mxCell id="deIehZgMaA9XYwQfUWdO-24" value="Transmitir Trama&amp;nbsp; para notificar que esta listo para configuración" style="rounded=0;whiteSpace=wrap;html=1;" vertex="1" parent="WIyWlLk6GJQsqaUBKTNV-1">
          <mxGeometry x="354" y="760" width="120" height="60" as="geometry" />
        </mxCell>
        <mxCell id="deIehZgMaA9XYwQfUWdO-25" value="Cargar un 1 a cada&lt;br&gt;&amp;nbsp;bit del byte &lt;br&gt;de error según corresponda" style="shape=dataStorage;whiteSpace=wrap;html=1;fixedSize=1;" vertex="1" parent="WIyWlLk6GJQsqaUBKTNV-1">
          <mxGeometry x="520" y="265" width="150" height="80" as="geometry" />
        </mxCell>
        <mxCell id="deIehZgMaA9XYwQfUWdO-27" value="Trama de espera de configuración" style="swimlane;fontStyle=0;childLayout=stackLayout;horizontal=1;startSize=30;horizontalStack=0;resizeParent=1;resizeParentMax=0;resizeLast=0;collapsible=1;marginBottom=0;whiteSpace=wrap;html=1;" vertex="1" parent="WIyWlLk6GJQsqaUBKTNV-1">
          <mxGeometry x="525" y="760" width="140" height="240" as="geometry" />
        </mxCell>
        <mxCell id="deIehZgMaA9XYwQfUWdO-28" value="Byte 0: Identificador (0xC5)" style="text;strokeColor=none;fillColor=none;align=left;verticalAlign=middle;spacingLeft=4;spacingRight=4;overflow=hidden;points=[[0,0.5],[1,0.5]];portConstraint=eastwest;rotatable=0;whiteSpace=wrap;html=1;" vertex="1" parent="deIehZgMaA9XYwQfUWdO-27">
          <mxGeometry y="30" width="140" height="30" as="geometry" />
        </mxCell>
        <mxCell id="deIehZgMaA9XYwQfUWdO-29" value="Byte 1: Validación 1 (0xAA)" style="text;strokeColor=none;fillColor=none;align=left;verticalAlign=middle;spacingLeft=4;spacingRight=4;overflow=hidden;points=[[0,0.5],[1,0.5]];portConstraint=eastwest;rotatable=0;whiteSpace=wrap;html=1;" vertex="1" parent="deIehZgMaA9XYwQfUWdO-27">
          <mxGeometry y="60" width="140" height="30" as="geometry" />
        </mxCell>
        <mxCell id="deIehZgMaA9XYwQfUWdO-30" value="Byte 2: Validación 2 (0x55)" style="text;strokeColor=none;fillColor=none;align=left;verticalAlign=middle;spacingLeft=4;spacingRight=4;overflow=hidden;points=[[0,0.5],[1,0.5]];portConstraint=eastwest;rotatable=0;whiteSpace=wrap;html=1;" vertex="1" parent="deIehZgMaA9XYwQfUWdO-27">
          <mxGeometry y="90" width="140" height="30" as="geometry" />
        </mxCell>
        <mxCell id="deIehZgMaA9XYwQfUWdO-41" value="Byte 3: Identificador de configuración(0xF0)" style="text;strokeColor=none;fillColor=none;align=left;verticalAlign=middle;spacingLeft=4;spacingRight=4;overflow=hidden;points=[[0,0.5],[1,0.5]];portConstraint=eastwest;rotatable=0;whiteSpace=wrap;html=1;" vertex="1" parent="deIehZgMaA9XYwQfUWdO-27">
          <mxGeometry y="120" width="140" height="30" as="geometry" />
        </mxCell>
        <mxCell id="deIehZgMaA9XYwQfUWdO-49" value="Byte 4: N. de Bytes de datos a transmitir (0x01)" style="text;strokeColor=none;fillColor=none;align=left;verticalAlign=middle;spacingLeft=4;spacingRight=4;overflow=hidden;points=[[0,0.5],[1,0.5]];portConstraint=eastwest;rotatable=0;whiteSpace=wrap;html=1;" vertex="1" parent="deIehZgMaA9XYwQfUWdO-27">
          <mxGeometry y="150" width="140" height="30" as="geometry" />
        </mxCell>
        <mxCell id="deIehZgMaA9XYwQfUWdO-42" value="Byte 5: Byte de error de inicialización." style="text;strokeColor=none;fillColor=none;align=left;verticalAlign=middle;spacingLeft=4;spacingRight=4;overflow=hidden;points=[[0,0.5],[1,0.5]];portConstraint=eastwest;rotatable=0;whiteSpace=wrap;html=1;" vertex="1" parent="deIehZgMaA9XYwQfUWdO-27">
          <mxGeometry y="180" width="140" height="30" as="geometry" />
        </mxCell>
        <mxCell id="deIehZgMaA9XYwQfUWdO-43" value="Byte 6: CRC." style="text;strokeColor=none;fillColor=none;align=left;verticalAlign=middle;spacingLeft=4;spacingRight=4;overflow=hidden;points=[[0,0.5],[1,0.5]];portConstraint=eastwest;rotatable=0;whiteSpace=wrap;html=1;" vertex="1" parent="deIehZgMaA9XYwQfUWdO-27">
          <mxGeometry y="210" width="140" height="30" as="geometry" />
        </mxCell>
        <mxCell id="deIehZgMaA9XYwQfUWdO-31" value="Byte de error" style="swimlane;fontStyle=0;childLayout=stackLayout;horizontal=1;startSize=30;horizontalStack=0;resizeParent=1;resizeParentMax=0;resizeLast=0;collapsible=1;marginBottom=0;whiteSpace=wrap;html=1;" vertex="1" parent="WIyWlLk6GJQsqaUBKTNV-1">
          <mxGeometry x="720" y="230" width="140" height="270" as="geometry" />
        </mxCell>
        <mxCell id="deIehZgMaA9XYwQfUWdO-32" value="Bit 7: Memoria flash externa" style="text;strokeColor=none;fillColor=none;align=left;verticalAlign=middle;spacingLeft=4;spacingRight=4;overflow=hidden;points=[[0,0.5],[1,0.5]];portConstraint=eastwest;rotatable=0;whiteSpace=wrap;html=1;" vertex="1" parent="deIehZgMaA9XYwQfUWdO-31">
          <mxGeometry y="30" width="140" height="30" as="geometry" />
        </mxCell>
        <mxCell id="deIehZgMaA9XYwQfUWdO-33" value="Bit 6: BMP280" style="text;strokeColor=none;fillColor=none;align=left;verticalAlign=middle;spacingLeft=4;spacingRight=4;overflow=hidden;points=[[0,0.5],[1,0.5]];portConstraint=eastwest;rotatable=0;whiteSpace=wrap;html=1;" vertex="1" parent="deIehZgMaA9XYwQfUWdO-31">
          <mxGeometry y="60" width="140" height="30" as="geometry" />
        </mxCell>
        <mxCell id="deIehZgMaA9XYwQfUWdO-34" value="Bit 5: MPU6050" style="text;strokeColor=none;fillColor=none;align=left;verticalAlign=middle;spacingLeft=4;spacingRight=4;overflow=hidden;points=[[0,0.5],[1,0.5]];portConstraint=eastwest;rotatable=0;whiteSpace=wrap;html=1;" vertex="1" parent="deIehZgMaA9XYwQfUWdO-31">
          <mxGeometry y="90" width="140" height="30" as="geometry" />
        </mxCell>
        <mxCell id="deIehZgMaA9XYwQfUWdO-35" value="Bit 4: GPS" style="text;strokeColor=none;fillColor=none;align=left;verticalAlign=middle;spacingLeft=4;spacingRight=4;overflow=hidden;points=[[0,0.5],[1,0.5]];portConstraint=eastwest;rotatable=0;whiteSpace=wrap;html=1;" vertex="1" parent="deIehZgMaA9XYwQfUWdO-31">
          <mxGeometry y="120" width="140" height="30" as="geometry" />
        </mxCell>
        <mxCell id="deIehZgMaA9XYwQfUWdO-38" value="Bit 3: Cámara" style="text;strokeColor=none;fillColor=none;align=left;verticalAlign=middle;spacingLeft=4;spacingRight=4;overflow=hidden;points=[[0,0.5],[1,0.5]];portConstraint=eastwest;rotatable=0;whiteSpace=wrap;html=1;" vertex="1" parent="deIehZgMaA9XYwQfUWdO-31">
          <mxGeometry y="150" width="140" height="30" as="geometry" />
        </mxCell>
        <mxCell id="deIehZgMaA9XYwQfUWdO-37" value="Bit 2: Reservado" style="text;strokeColor=none;fillColor=none;align=left;verticalAlign=middle;spacingLeft=4;spacingRight=4;overflow=hidden;points=[[0,0.5],[1,0.5]];portConstraint=eastwest;rotatable=0;whiteSpace=wrap;html=1;" vertex="1" parent="deIehZgMaA9XYwQfUWdO-31">
          <mxGeometry y="180" width="140" height="30" as="geometry" />
        </mxCell>
        <mxCell id="deIehZgMaA9XYwQfUWdO-39" value="Bit 1: Reservado" style="text;strokeColor=none;fillColor=none;align=left;verticalAlign=middle;spacingLeft=4;spacingRight=4;overflow=hidden;points=[[0,0.5],[1,0.5]];portConstraint=eastwest;rotatable=0;whiteSpace=wrap;html=1;" vertex="1" parent="deIehZgMaA9XYwQfUWdO-31">
          <mxGeometry y="210" width="140" height="30" as="geometry" />
        </mxCell>
        <mxCell id="deIehZgMaA9XYwQfUWdO-40" value="Bit 0: Reservadp" style="text;strokeColor=none;fillColor=none;align=left;verticalAlign=middle;spacingLeft=4;spacingRight=4;overflow=hidden;points=[[0,0.5],[1,0.5]];portConstraint=eastwest;rotatable=0;whiteSpace=wrap;html=1;" vertex="1" parent="deIehZgMaA9XYwQfUWdO-31">
          <mxGeometry y="240" width="140" height="30" as="geometry" />
        </mxCell>
        <mxCell id="deIehZgMaA9XYwQfUWdO-46" style="edgeStyle=orthogonalEdgeStyle;rounded=0;orthogonalLoop=1;jettySize=auto;html=1;entryX=1;entryY=0.5;entryDx=0;entryDy=0;" edge="1" parent="WIyWlLk6GJQsqaUBKTNV-1" source="deIehZgMaA9XYwQfUWdO-40" target="deIehZgMaA9XYwQfUWdO-42">
          <mxGeometry relative="1" as="geometry" />
        </mxCell>
        <mxCell id="deIehZgMaA9XYwQfUWdO-47" style="edgeStyle=orthogonalEdgeStyle;rounded=0;orthogonalLoop=1;jettySize=auto;html=1;entryX=0.006;entryY=0.053;entryDx=0;entryDy=0;entryPerimeter=0;exitX=0.859;exitY=0.49;exitDx=0;exitDy=0;exitPerimeter=0;" edge="1" parent="WIyWlLk6GJQsqaUBKTNV-1" source="deIehZgMaA9XYwQfUWdO-25" target="deIehZgMaA9XYwQfUWdO-31">
          <mxGeometry relative="1" as="geometry" />
        </mxCell>
        <mxCell id="deIehZgMaA9XYwQfUWdO-68" style="edgeStyle=orthogonalEdgeStyle;rounded=0;orthogonalLoop=1;jettySize=auto;html=1;entryX=0.5;entryY=0;entryDx=0;entryDy=0;" edge="1" parent="WIyWlLk6GJQsqaUBKTNV-1" source="deIehZgMaA9XYwQfUWdO-52">
          <mxGeometry relative="1" as="geometry">
            <mxPoint x="414" y="1030" as="targetPoint" />
          </mxGeometry>
        </mxCell>
        <mxCell id="deIehZgMaA9XYwQfUWdO-52" value="Asigna el estado actual en modo reposo (0x00)" style="rounded=0;whiteSpace=wrap;html=1;" vertex="1" parent="WIyWlLk6GJQsqaUBKTNV-1">
          <mxGeometry x="354" y="940" width="120" height="60" as="geometry" />
        </mxCell>
        <mxCell id="deIehZgMaA9XYwQfUWdO-54" style="edgeStyle=orthogonalEdgeStyle;rounded=0;orthogonalLoop=1;jettySize=auto;html=1;" edge="1" parent="WIyWlLk6GJQsqaUBKTNV-1" source="deIehZgMaA9XYwQfUWdO-53" target="deIehZgMaA9XYwQfUWdO-52">
          <mxGeometry relative="1" as="geometry" />
        </mxCell>
        <mxCell id="deIehZgMaA9XYwQfUWdO-53" value="Configurar el NRF24 como receptor" style="rounded=0;whiteSpace=wrap;html=1;" vertex="1" parent="WIyWlLk6GJQsqaUBKTNV-1">
          <mxGeometry x="354" y="850" width="120" height="60" as="geometry" />
        </mxCell>
        <mxCell id="deIehZgMaA9XYwQfUWdO-55" style="edgeStyle=orthogonalEdgeStyle;rounded=0;orthogonalLoop=1;jettySize=auto;html=1;entryX=-0.007;entryY=0.061;entryDx=0;entryDy=0;entryPerimeter=0;" edge="1" parent="WIyWlLk6GJQsqaUBKTNV-1" source="deIehZgMaA9XYwQfUWdO-24" target="deIehZgMaA9XYwQfUWdO-27">
          <mxGeometry relative="1" as="geometry" />
        </mxCell>
        <mxCell id="deIehZgMaA9XYwQfUWdO-69" value="Reposo" style="shape=parallelogram;perimeter=parallelogramPerimeter;whiteSpace=wrap;html=1;fixedSize=1;" vertex="1" parent="WIyWlLk6GJQsqaUBKTNV-1">
          <mxGeometry x="1440" y="47.5" width="130" height="55" as="geometry" />
        </mxCell>
        <mxCell id="deIehZgMaA9XYwQfUWdO-70" value="Máquina de &lt;br&gt;estados" style="shape=parallelogram;perimeter=parallelogramPerimeter;whiteSpace=wrap;html=1;fixedSize=1;" vertex="1" parent="WIyWlLk6GJQsqaUBKTNV-1">
          <mxGeometry x="354" y="1030" width="120" height="60" as="geometry" />
        </mxCell>
        <mxCell id="deIehZgMaA9XYwQfUWdO-73" style="edgeStyle=orthogonalEdgeStyle;rounded=0;orthogonalLoop=1;jettySize=auto;html=1;" edge="1" parent="WIyWlLk6GJQsqaUBKTNV-1" source="deIehZgMaA9XYwQfUWdO-71">
          <mxGeometry relative="1" as="geometry">
            <mxPoint x="1195" y="140" as="targetPoint" />
          </mxGeometry>
        </mxCell>
        <mxCell id="deIehZgMaA9XYwQfUWdO-71" value="Máquina de estados" style="shape=parallelogram;perimeter=parallelogramPerimeter;whiteSpace=wrap;html=1;fixedSize=1;" vertex="1" parent="WIyWlLk6GJQsqaUBKTNV-1">
          <mxGeometry x="1130" y="47.5" width="130" height="55" as="geometry" />
        </mxCell>
        <mxCell id="deIehZgMaA9XYwQfUWdO-78" value="Estado actual" style="swimlane;fontStyle=0;childLayout=stackLayout;horizontal=1;startSize=30;horizontalStack=0;resizeParent=1;resizeParentMax=0;resizeLast=0;collapsible=1;marginBottom=0;whiteSpace=wrap;html=1;" vertex="1" parent="WIyWlLk6GJQsqaUBKTNV-1">
          <mxGeometry x="1125" y="140" width="140" height="150" as="geometry" />
        </mxCell>
        <mxCell id="deIehZgMaA9XYwQfUWdO-79" value="Reposo" style="text;strokeColor=none;fillColor=none;align=left;verticalAlign=middle;spacingLeft=4;spacingRight=4;overflow=hidden;points=[[0,0.5],[1,0.5]];portConstraint=eastwest;rotatable=0;whiteSpace=wrap;html=1;" vertex="1" parent="deIehZgMaA9XYwQfUWdO-78">
          <mxGeometry y="30" width="140" height="30" as="geometry" />
        </mxCell>
        <mxCell id="deIehZgMaA9XYwQfUWdO-80" value="Activo" style="text;strokeColor=none;fillColor=none;align=left;verticalAlign=middle;spacingLeft=4;spacingRight=4;overflow=hidden;points=[[0,0.5],[1,0.5]];portConstraint=eastwest;rotatable=0;whiteSpace=wrap;html=1;" vertex="1" parent="deIehZgMaA9XYwQfUWdO-78">
          <mxGeometry y="60" width="140" height="30" as="geometry" />
        </mxCell>
        <mxCell id="deIehZgMaA9XYwQfUWdO-81" value="Recuperación" style="text;strokeColor=none;fillColor=none;align=left;verticalAlign=middle;spacingLeft=4;spacingRight=4;overflow=hidden;points=[[0,0.5],[1,0.5]];portConstraint=eastwest;rotatable=0;whiteSpace=wrap;html=1;" vertex="1" parent="deIehZgMaA9XYwQfUWdO-78">
          <mxGeometry y="90" width="140" height="30" as="geometry" />
        </mxCell>
        <mxCell id="deIehZgMaA9XYwQfUWdO-82" value="Error" style="text;strokeColor=none;fillColor=none;align=left;verticalAlign=middle;spacingLeft=4;spacingRight=4;overflow=hidden;points=[[0,0.5],[1,0.5]];portConstraint=eastwest;rotatable=0;whiteSpace=wrap;html=1;" vertex="1" parent="deIehZgMaA9XYwQfUWdO-78">
          <mxGeometry y="120" width="140" height="30" as="geometry" />
        </mxCell>
        <mxCell id="deIehZgMaA9XYwQfUWdO-83" value="Activo" style="shape=parallelogram;perimeter=parallelogramPerimeter;whiteSpace=wrap;html=1;fixedSize=1;" vertex="1" parent="WIyWlLk6GJQsqaUBKTNV-1">
          <mxGeometry x="1700" y="47.5" width="130" height="55" as="geometry" />
        </mxCell>
        <mxCell id="deIehZgMaA9XYwQfUWdO-84" value="Recuperación" style="shape=parallelogram;perimeter=parallelogramPerimeter;whiteSpace=wrap;html=1;fixedSize=1;" vertex="1" parent="WIyWlLk6GJQsqaUBKTNV-1">
          <mxGeometry x="1960" y="47.5" width="130" height="55" as="geometry" />
        </mxCell>
        <mxCell id="deIehZgMaA9XYwQfUWdO-85" value="Error" style="shape=parallelogram;perimeter=parallelogramPerimeter;whiteSpace=wrap;html=1;fixedSize=1;" vertex="1" parent="WIyWlLk6GJQsqaUBKTNV-1">
          <mxGeometry x="2220" y="47.5" width="130" height="55" as="geometry" />
        </mxCell>
        <mxCell id="deIehZgMaA9XYwQfUWdO-87" style="edgeStyle=orthogonalEdgeStyle;rounded=0;orthogonalLoop=1;jettySize=auto;html=1;exitX=1;exitY=0.5;exitDx=0;exitDy=0;entryX=-0.013;entryY=0.135;entryDx=0;entryDy=0;entryPerimeter=0;" edge="1" parent="WIyWlLk6GJQsqaUBKTNV-1" target="deIehZgMaA9XYwQfUWdO-78">
          <mxGeometry relative="1" as="geometry">
            <mxPoint x="1070" y="160" as="sourcePoint" />
          </mxGeometry>
        </mxCell>
        <mxCell id="deIehZgMaA9XYwQfUWdO-88" value="Cambio&amp;nbsp;&lt;br&gt;estado" style="triangle;whiteSpace=wrap;html=1;" vertex="1" parent="WIyWlLk6GJQsqaUBKTNV-1">
          <mxGeometry x="1000" y="120" width="70" height="80" as="geometry" />
        </mxCell>
      </root>
    </mxGraphModel>
  </diagram>
</mxfile>
